{"glyphs":{"0":{"ha":924,"x_min":0,"x_max":0,"o":"m 486 729 b 614 601 557 729 614 672 l 614 369 b 486 242 614 299 557 242 l 438 242 b 310 369 367 242 310 299 l 310 601 b 438 729 310 672 367 729 l 486 729 z m 438 972 b 68 603 233 972 68 807 l 68 371 b 438 1 68 167 233 1 l 486 1 b 856 371 690 1 856 167 l 856 603 b 486 972 856 807 690 972 z "},"1":{"ha":438,"x_min":0,"x_max":0,"o":"m 67 972 l 67 668 l 128 546 l 128 -1 l 371 -1 l 371 971 z "},"2":{"ha":924,"x_min":0,"x_max":0,"o":"m 857 549 l 857 765 b 650 972 857 879 764 972 l 274 972 b 67 765 160 972 67 879 l 67 607 l 310 607 l 310 728 l 614 728 l 614 665 l 67 228 l 67 -1 l 857 -1 l 857 242 l 474 242 z "},"3":{"ha":924,"x_min":0,"x_max":0,"o":"m 857 972 l 67 972 l 67 729 l 431 729 l 188 547 l 188 365 l 613 365 l 613 243 l 65 243 l 65 0 l 663 0 b 856 193 769 0 856 86 l 856 415 b 674 608 856 518 775 603 l 857 746 z "},"4":{"ha":924,"x_min":0,"x_max":0,"o":"m 796 972 l 410 972 l 67 428 l 67 182 l 553 182 l 553 0 l 796 0 l 796 182 l 857 182 l 857 425 l 796 425 z m 553 425 l 351 425 l 553 743 z "},"5":{"ha":924,"x_min":0,"x_max":0,"o":"m 857 729 l 857 972 l 67 972 l 67 364 l 614 364 l 614 242 l 67 242 l 67 -1 l 664 -1 b 857 192 771 -1 857 85 l 857 414 b 675 607 857 517 776 601 l 675 607 l 310 607 l 310 728 z "},"6":{"ha":924,"x_min":0,"x_max":0,"o":"m 461 -15 b 856 379 679 -15 856 161 b 482 774 856 590 690 763 l 600 1017 l 331 1017 l 106 553 b 106 549 106 551 106 550 l 100 538 l 100 538 b 68 381 79 489 68 436 b 463 -14 68 163 244 -14 z m 614 381 b 463 229 614 297 546 229 b 311 381 379 229 311 297 b 463 532 311 464 379 532 b 614 381 546 532 614 464 z "},"7":{"ha":924,"x_min":0,"x_max":0,"o":"m 857 972 l 67 972 l 67 729 l 469 729 l 132 0 l 400 0 l 738 729 l 857 729 z "},"8":{"ha":1044,"x_min":0,"x_max":0,"o":"m 674 972 l 369 972 b 65 668 201 972 65 836 b 125 486 65 600 88 538 b 65 304 88 435 65 372 b 369 0 65 136 201 0 l 674 0 b 978 304 842 0 978 136 b 918 486 978 372 956 435 b 978 668 956 538 978 600 b 674 972 978 836 842 972 z m 369 729 l 674 729 b 735 668 707 729 735 701 b 674 607 735 635 707 607 l 369 607 b 308 668 336 607 308 635 b 369 729 308 701 336 729 z m 674 243 l 369 243 b 308 304 336 243 308 271 b 369 365 308 338 336 365 l 674 365 b 735 304 707 365 735 338 b 674 243 735 271 707 243 z "},"9":{"ha":924,"x_min":0,"x_max":0,"o":"m 461 1010 b 67 615 243 1010 67 833 b 440 221 67 404 232 232 l 322 -22 l 592 -22 l 817 442 b 817 446 817 443 817 444 l 822 457 l 822 457 b 854 614 843 506 854 558 b 460 1008 854 832 678 1008 z m 308 614 b 460 765 308 697 376 765 b 611 614 543 765 611 697 b 460 463 611 531 543 463 b 308 614 376 463 308 531 z "},"\u0000":{"ha":0,"x_min":0,"x_max":0,"o":""},"\n":{"ha":0,"x_min":0,"x_max":0,"o":""},"\r":{"ha":0,"x_min":0,"x_max":0,"o":""}," ":{"ha":517,"x_min":0,"x_max":0,"o":""},"!":{"ha":378,"x_min":0,"x_max":0,"o":"m 249 243 l 129 243 b 68 182 96 243 68 215 l 68 63 b 129 1 68 29 96 1 l 249 1 b 310 63 282 1 310 29 l 310 182 b 249 243 310 215 282 243 z m 310 304 l 310 972 l 67 972 l 67 304 z "},"\"":{"ha":681,"x_min":0,"x_max":0,"o":"m 249 974 l 129 974 b 68 913 96 974 68 946 l 68 853 b 129 792 68 819 96 792 b 189 732 163 792 189 765 l 189 671 b 310 792 256 671 310 725 l 310 913 l 310 913 b 249 974 310 946 282 974 z m 614 974 b 553 1035 614 1007 586 1035 l 433 1035 b 372 974 400 1035 372 1007 l 372 853 b 433 792 372 819 400 792 b 493 732 467 792 493 765 l 493 671 b 614 792 560 671 614 725 l 614 974 z "},"#":{"ha":1349,"x_min":0,"x_max":0,"o":"m 1221 607 l 1282 850 l 1138 850 l 1160 971 l 917 971 l 894 849 l 590 849 l 613 969 l 369 969 l 347 847 l 188 847 l 126 604 l 301 604 l 267 422 l 126 422 l 65 179 l 221 179 l 186 -3 l 429 -3 l 464 179 l 768 179 l 733 -3 l 976 -3 l 1011 179 l 1160 179 l 1221 422 l 1057 422 l 1092 604 z m 814 422 l 510 422 l 544 604 l 849 604 z "},"$":{"ha":1106,"x_min":0,"x_max":0,"o":"m 735 608 l 674 608 l 674 729 l 794 729 l 915 972 l 672 972 l 672 1093 l 429 1093 l 429 971 l 368 971 b 64 667 200 971 64 835 b 368 363 64 499 200 363 l 429 363 l 429 240 l 307 240 l 185 -3 l 428 -3 l 428 -125 l 671 -125 l 671 -4 l 732 -4 b 1036 300 900 -4 1036 132 b 732 604 1036 468 900 604 z m 367 604 b 306 665 333 604 306 632 b 367 726 306 699 333 726 l 428 726 l 428 604 z m 732 239 l 671 239 l 671 360 l 732 360 b 793 299 765 360 793 332 b 732 238 793 265 765 238 z "},"%":{"ha":1193,"x_min":0,"x_max":0,"o":"m 299 547 b 504 753 413 547 504 639 l 504 881 b 299 1086 504 994 413 1086 l 271 1086 b 65 881 157 1086 65 994 l 65 753 b 271 547 65 639 157 547 z m 246 753 l 246 881 b 271 906 246 894 257 906 l 299 906 b 324 881 313 906 324 894 l 324 753 b 299 728 324 739 313 728 l 271 728 b 246 753 257 728 246 739 z m 921 428 l 893 428 b 688 222 779 428 688 336 l 688 94 b 893 -111 688 -19 779 -111 l 921 -111 b 1126 94 1035 -111 1126 -19 l 1126 222 b 921 428 1126 336 1035 428 z m 946 94 b 921 69 946 81 935 69 l 893 69 b 868 94 879 69 868 81 l 868 222 b 893 247 868 236 879 247 l 921 247 b 946 222 935 247 946 236 z m 747 974 l 200 1 l 443 1 l 990 974 z "},"&":{"ha":1221,"x_min":0,"x_max":0,"o":"m 492 1086 l 492 964 l 369 964 b 65 660 201 964 65 828 b 125 478 65 592 88 529 b 65 296 88 426 65 364 b 369 -8 65 128 201 -8 l 490 -8 l 490 -131 l 733 -131 l 733 -10 l 849 -10 b 1153 294 1017 -10 1153 126 b 849 599 1153 463 1017 599 l 794 599 l 794 356 l 849 356 b 910 294 882 356 910 328 b 849 233 910 261 882 233 l 369 233 b 308 294 336 233 308 261 b 369 356 308 328 336 356 l 733 356 l 733 1085 z m 308 660 b 369 721 308 693 336 721 l 490 721 l 490 599 l 368 599 b 307 660 335 599 307 626 z "},"'":{"ha":376,"x_min":0,"x_max":0,"o":"m 310 913 b 249 974 310 946 282 974 l 129 974 b 68 913 96 974 68 946 l 68 853 b 129 792 68 819 96 792 b 189 732 163 792 189 765 l 189 671 b 310 792 256 671 310 725 l 310 913 z "},"(":{"ha":792,"x_min":0,"x_max":0,"o":"m 724 -94 b 310 478 483 -15 310 211 b 724 1050 310 744 483 971 l 724 1303 b 67 478 347 1217 67 881 b 724 -347 67 75 347 -261 z "},")":{"ha":792,"x_min":0,"x_max":0,"o":"m 67 -347 b 724 478 443 -261 724 75 b 67 1303 724 881 443 1217 l 67 1050 b 481 478 307 971 481 744 b 67 -94 481 211 307 -15 z "},"*":{"ha":540,"x_min":0,"x_max":0,"o":"m 474 1019 l 393 1111 l 331 1057 l 331 1106 l 208 1106 l 208 1057 l 146 1111 l 65 1019 l 176 922 l 65 825 l 146 733 l 208 788 l 208 739 l 329 739 l 329 788 l 392 733 l 472 825 l 361 922 z "},"+":{"ha":863,"x_min":0,"x_max":0,"o":"m 796 615 l 553 615 l 553 858 l 310 858 l 310 615 l 67 615 l 67 372 l 310 372 l 310 129 l 553 129 l 553 372 l 796 372 z "},",":{"ha":376,"x_min":0,"x_max":0,"o":"m 310 122 b 249 183 310 156 282 183 l 129 183 b 68 122 96 183 68 156 l 68 63 b 129 1 68 29 96 1 b 189 -58 163 1 189 -25 l 189 -119 b 310 1 256 -119 310 -65 l 310 122 z "},"-":{"ha":924,"x_min":0,"x_max":0,"o":"m 857 354 l 857 597 l 67 597 l 67 354 z "},".":{"ha":376,"x_min":0,"x_max":0,"o":"m 310 61 l 310 181 b 249 242 310 214 282 242 l 129 242 b 68 181 96 242 68 214 l 68 61 b 129 0 68 28 96 0 l 249 0 b 310 61 282 0 310 28 z "},"/":{"ha":924,"x_min":0,"x_max":0,"o":"m 614 972 l 67 0 l 310 0 l 857 972 z "},":":{"ha":376,"x_min":0,"x_max":0,"o":"m 249 243 l 129 243 b 68 182 96 243 68 215 l 68 63 b 129 1 68 29 96 1 l 249 1 b 310 63 282 1 310 29 l 310 182 b 249 243 310 215 282 243 z m 249 668 l 129 668 b 68 607 96 668 68 640 l 68 488 b 129 426 68 454 96 426 l 249 426 b 310 488 282 426 310 454 l 310 607 b 249 668 310 640 282 668 z "},";":{"ha":376,"x_min":0,"x_max":0,"o":"m 249 669 l 129 669 b 68 608 96 669 68 642 l 68 489 b 129 428 68 456 96 428 l 249 428 b 310 489 282 428 310 456 l 310 608 b 249 669 310 642 282 669 z m 249 183 l 129 183 b 68 122 96 183 68 156 l 68 63 b 129 1 68 29 96 1 b 189 -58 163 1 189 -25 l 189 -119 b 310 1 256 -119 310 -65 l 310 122 l 310 122 b 249 183 310 156 282 183 z "},"<":{"ha":615,"x_min":0,"x_max":0,"o":"m 549 972 l 306 972 l 67 547 l 310 547 z m 67 425 l 306 0 l 549 0 l 310 425 z "},"=":{"ha":924,"x_min":0,"x_max":0,"o":"m 857 482 l 857 725 l 67 725 l 67 482 z m 857 117 l 857 360 l 67 360 l 67 117 z "},">":{"ha":615,"x_min":0,"x_max":0,"o":"m 549 547 l 310 972 l 67 972 l 306 547 z m 67 0 l 310 0 l 549 425 l 306 425 z "},"?":{"ha":985,"x_min":0,"x_max":0,"o":"m 492 244 l 372 244 b 311 183 339 244 311 217 l 311 64 b 372 3 311 31 339 3 l 492 3 b 553 64 525 3 553 31 l 553 183 b 492 244 553 217 525 244 z m 649 974 l 338 974 b 68 704 189 974 68 853 l 68 610 l 311 610 l 311 704 b 338 731 311 718 324 731 l 649 731 b 675 704 663 731 675 718 l 675 575 b 649 549 675 561 663 549 l 311 549 l 311 306 l 649 306 b 918 575 797 306 918 426 l 918 704 b 649 974 918 853 797 974 z "},"@":{"ha":1288,"x_min":0,"x_max":0,"o":"m 711 -79 b 888 -26 728 -78 801 -67 l 888 -26 b 1222 497 1085 65 1222 265 b 644 1075 1222 817 964 1075 b 67 497 325 1075 67 817 b 544 -71 67 213 274 -24 l 544 115 b 249 497 375 160 249 314 b 644 893 249 715 426 893 b 1040 497 863 893 1040 715 b 888 186 1040 371 981 258 l 888 508 l 888 508 b 642 738 879 636 772 738 b 397 493 507 738 397 628 b 642 249 397 358 507 249 b 711 260 665 249 689 253 l 711 -78 z m 642 432 b 579 494 607 432 579 460 b 642 557 579 529 607 557 b 704 494 676 557 704 529 b 642 432 704 460 676 432 z "},"A":{"ha":1217,"x_min":0,"x_max":0,"o":"m 751 972 l 488 972 l 78 0 l 342 0 l 367 61 l 871 61 l 896 0 l 1160 0 z m 469 304 l 619 660 l 769 304 z "},"B":{"ha":1046,"x_min":0,"x_max":0,"o":"m 882 525 b 917 668 904 568 917 617 b 613 972 917 836 781 972 l 65 972 l 65 0 l 672 0 b 976 304 840 0 976 136 b 879 526 976 392 939 471 z m 307 731 l 611 731 b 672 669 644 731 672 703 b 611 608 672 636 644 608 l 307 608 z m 671 243 l 306 243 l 306 364 l 669 364 b 731 303 703 364 731 336 b 669 242 731 269 703 242 z "},"C":{"ha":986,"x_min":0,"x_max":0,"o":"m 778 288 b 582 206 728 238 658 206 b 308 479 431 206 308 328 b 582 753 308 631 431 753 b 775 674 657 753 725 722 l 957 835 b 583 994 863 933 731 994 b 68 479 299 994 68 764 b 583 -37 68 194 299 -37 b 960 125 732 -37 865 25 z "},"D":{"ha":1008,"x_min":0,"x_max":0,"o":"m 492 972 l 67 972 l 67 0 l 492 0 b 978 486 760 0 978 218 b 492 972 978 754 760 972 z m 492 243 l 310 243 l 310 729 l 492 729 b 733 486 625 729 733 619 b 490 242 733 351 624 242 z "},"E":{"ha":803,"x_min":0,"x_max":0,"o":"m 67 972 l 67 0 l 735 0 l 735 243 l 310 243 l 310 364 l 492 364 l 492 607 l 310 607 l 310 728 l 735 728 l 735 971 z "},"F":{"ha":803,"x_min":0,"x_max":0,"o":"m 67 972 l 67 0 l 310 0 l 310 304 l 553 304 l 553 547 l 310 547 l 310 729 l 735 729 l 735 972 z "},"G":{"ha":1049,"x_min":0,"x_max":0,"o":"m 556 579 l 556 336 l 738 336 l 738 296 b 542 214 688 246 618 214 b 268 488 390 214 268 336 b 542 761 268 639 390 761 b 735 682 617 761 685 731 l 917 843 b 543 1003 822 942 690 1003 b 28 488 258 1003 28 772 b 543 -28 28 203 258 -28 b 785 33 631 -28 713 -6 l 979 33 l 979 581 z "},"H":{"ha":985,"x_min":0,"x_max":0,"o":"m 674 972 l 674 607 l 308 607 l 308 971 l 65 971 l 65 -1 l 308 -1 l 308 363 l 672 363 l 672 -3 l 915 -3 l 915 969 z "},"I":{"ha":376,"x_min":0,"x_max":0,"o":"m 310 0 l 310 972 l 67 972 l 67 0 z "},"J":{"ha":499,"x_min":0,"x_max":0,"o":"m 188 972 l 188 296 b 135 243 188 267 164 243 l 67 243 l 67 0 l 135 0 b 432 297 299 0 432 133 l 432 974 z "},"K":{"ha":988,"x_min":0,"x_max":0,"o":"m 506 554 l 857 972 l 553 972 l 310 692 l 310 972 l 67 972 l 67 0 l 310 0 l 310 321 l 344 363 l 617 0 l 921 0 z "},"L":{"ha":863,"x_min":0,"x_max":0,"o":"m 310 243 l 310 972 l 67 972 l 67 0 l 796 0 l 796 243 z "},"M":{"ha":1228,"x_min":0,"x_max":0,"o":"m 867 972 l 583 689 l 347 972 l 68 972 l 68 0 l 311 0 l 311 636 l 650 232 l 836 388 l 740 500 l 918 678 l 918 -1 l 1161 -1 l 1161 971 z "},"N":{"ha":971,"x_min":0,"x_max":0,"o":"m 661 972 l 661 424 l 318 972 l 67 972 l 67 0 l 310 0 l 310 526 l 639 0 l 904 0 l 904 972 z "},"O":{"ha":1167,"x_min":0,"x_max":0,"o":"m 583 996 b 68 481 299 996 68 765 b 583 -35 68 196 299 -35 b 1099 481 868 -35 1099 196 b 583 996 1099 765 868 996 z m 583 206 b 310 479 432 206 310 328 b 583 753 310 631 432 753 b 857 479 735 753 857 631 b 583 206 857 328 735 206 z "},"P":{"ha":913,"x_min":0,"x_max":0,"o":"m 485 972 l 67 972 l 67 0 l 310 0 l 310 189 l 485 189 b 876 581 701 189 876 364 b 485 972 876 797 701 972 z m 485 432 l 310 432 l 310 729 l 485 729 b 633 581 567 729 633 663 b 485 432 633 499 567 432 z "},"Q":{"ha":1176,"x_min":0,"x_max":0,"o":"m 792 -3 l 1110 -3 l 981 150 b 1099 479 1054 239 1099 354 b 583 994 1099 764 868 994 b 68 479 299 994 68 764 b 583 -36 68 194 299 -36 b 786 6 656 -36 724 -21 z m 617 210 b 583 207 606 208 594 207 b 310 481 432 207 310 329 b 583 754 310 632 432 754 b 857 481 735 754 857 632 b 819 343 857 431 843 383 l 767 406 l 581 250 z "},"R":{"ha":944,"x_min":0,"x_max":0,"o":"m 876 581 b 485 972 876 797 701 972 l 67 972 l 67 0 l 310 0 l 310 189 l 425 189 l 560 0 l 858 0 l 685 243 b 878 579 800 311 878 436 z m 486 431 l 311 431 l 311 728 l 486 728 b 635 579 568 728 635 661 b 486 431 635 497 568 431 z "},"S":{"ha":1044,"x_min":0,"x_max":0,"o":"m 371 729 l 635 729 b 696 668 668 729 696 701 l 939 668 b 635 972 939 836 803 972 l 371 972 b 67 668 203 972 67 836 b 371 364 67 500 203 364 l 675 364 b 736 303 708 364 736 336 b 675 242 736 269 708 242 l 371 242 b 310 303 338 242 310 269 l 67 303 b 371 -1 67 135 203 -1 l 675 -1 b 979 303 843 -1 979 135 b 675 607 979 471 843 607 l 371 607 b 310 668 338 607 310 635 b 371 729 310 701 338 729 z "},"T":{"ha":985,"x_min":0,"x_max":0,"o":"m 67 972 l 67 729 l 371 729 l 371 0 l 614 0 l 614 729 l 918 729 l 918 972 z "},"U":{"ha":985,"x_min":0,"x_max":0,"o":"m 674 972 l 674 425 b 492 243 674 325 592 243 b 310 425 392 243 310 325 l 310 972 l 67 972 l 67 425 b 492 0 67 190 257 0 b 917 425 726 0 917 190 l 917 972 z "},"V":{"ha":1217,"x_min":0,"x_max":0,"o":"m 885 972 l 607 313 l 329 972 l 65 972 l 475 0 l 739 0 l 1149 972 z "},"W":{"ha":1629,"x_min":0,"x_max":0,"o":"m 1318 972 l 1040 313 l 763 972 l 499 972 l 692 513 l 607 313 l 329 972 l 65 972 l 475 0 l 739 0 l 824 200 l 908 0 l 1172 0 l 1582 972 z "},"X":{"ha":1167,"x_min":0,"x_max":0,"o":"m 1099 972 l 763 972 l 582 721 l 401 972 l 65 972 l 414 486 l 65 0 l 401 0 l 582 251 l 763 0 l 1099 0 l 750 486 z "},"Y":{"ha":1103,"x_min":0,"x_max":0,"o":"m 774 972 l 571 693 l 368 972 l 68 972 l 450 447 l 450 0 l 693 0 l 693 447 l 1075 972 z "},"Z":{"ha":1046,"x_min":0,"x_max":0,"o":"m 978 972 l 67 972 l 67 729 l 632 729 l 67 278 l 67 0 l 978 0 l 978 243 l 413 243 l 978 694 z "},"[":{"ha":619,"x_min":0,"x_max":0,"o":"m 553 1104 l 553 1347 l 67 1347 l 67 1104 l 128 1104 l 128 -111 l 67 -111 l 67 -354 l 553 -354 l 553 -111 l 371 -111 l 371 1104 z "},"\\":{"ha":924,"x_min":0,"x_max":0,"o":"m 67 972 l 614 0 l 857 0 l 310 972 z "},"]":{"ha":619,"x_min":0,"x_max":0,"o":"m 249 1104 l 249 -111 l 67 -111 l 67 -354 l 553 -354 l 553 -111 l 492 -111 l 492 1104 l 553 1104 l 553 1347 l 67 1347 l 67 1104 z "},"^":{"ha":585,"x_min":0,"x_max":0,"o":"m 324 1111 l 263 1111 l 68 917 l 163 822 l 293 953 l 424 822 l 518 917 z "},"_":{"ha":924,"x_min":0,"x_max":0,"o":"m 857 -274 l 857 -31 l 67 -31 l 67 -274 z "},"`":{"ha":376,"x_min":0,"x_max":0,"o":"m 310 1043 b 249 1104 310 1076 282 1104 l 129 1104 b 68 1043 96 1104 68 1076 l 68 740 l 311 740 z "},"a":{"ha":1215,"x_min":0,"x_max":0,"o":"m 751 972 l 488 972 l 78 0 l 342 0 l 367 61 l 871 61 l 896 0 l 1160 0 z m 469 304 l 619 660 l 769 304 z "},"b":{"ha":1044,"x_min":0,"x_max":0,"o":"m 882 525 b 917 668 904 568 917 617 b 613 972 917 836 781 972 l 65 972 l 65 0 l 672 0 b 976 304 840 0 976 136 b 879 526 976 392 939 471 z m 307 731 l 611 731 b 672 669 644 731 672 703 b 611 608 672 636 644 608 l 307 608 z m 671 243 l 306 243 l 306 364 l 669 364 b 731 303 703 364 731 336 b 669 242 731 269 703 242 z "},"c":{"ha":1026,"x_min":0,"x_max":0,"o":"m 778 288 b 582 206 728 238 658 206 b 308 479 431 206 308 328 b 582 753 308 631 431 753 b 775 674 657 753 725 722 l 957 835 b 583 994 863 933 731 994 b 68 479 299 994 68 764 b 583 -36 68 194 299 -36 b 960 126 732 -36 865 26 z "},"d":{"ha":1044,"x_min":0,"x_max":0,"o":"m 492 972 l 67 972 l 67 0 l 492 0 b 978 486 760 0 978 218 b 492 972 978 754 760 972 z m 492 243 l 310 243 l 310 729 l 492 729 b 735 486 625 729 735 619 b 492 243 735 353 625 243 z "},"e":{"ha":801,"x_min":0,"x_max":0,"o":"m 67 972 l 67 0 l 735 0 l 735 243 l 310 243 l 310 364 l 492 364 l 492 607 l 310 607 l 310 728 l 735 728 l 735 971 z "},"f":{"ha":801,"x_min":0,"x_max":0,"o":"m 67 972 l 67 0 l 310 0 l 310 304 l 553 304 l 553 547 l 310 547 l 310 729 l 735 729 l 735 972 z "},"g":{"ha":1047,"x_min":0,"x_max":0,"o":"m 556 579 l 556 336 l 738 336 l 738 296 b 542 214 688 246 618 214 b 268 488 390 214 268 336 b 542 761 268 639 390 761 b 735 682 617 761 685 731 l 917 843 b 543 1003 822 942 690 1003 b 28 488 258 1003 28 772 b 543 -28 28 203 258 -28 b 785 33 631 -28 713 -6 l 979 33 l 979 581 z "},"h":{"ha":985,"x_min":0,"x_max":0,"o":"m 674 972 l 674 607 l 308 607 l 308 971 l 65 971 l 65 -1 l 308 -1 l 308 363 l 672 363 l 672 -3 l 915 -3 l 915 969 z "},"i":{"ha":376,"x_min":0,"x_max":0,"o":"m 310 0 l 310 972 l 67 972 l 67 0 z "},"j":{"ha":499,"x_min":0,"x_max":0,"o":"m 188 972 l 188 296 b 135 243 188 267 164 243 l 67 243 l 67 0 l 135 0 b 432 297 299 0 432 133 l 432 974 z "},"k":{"ha":988,"x_min":0,"x_max":0,"o":"m 506 554 l 857 972 l 553 972 l 310 692 l 310 972 l 67 972 l 67 0 l 310 0 l 310 321 l 344 363 l 617 0 l 921 0 z "},"l":{"ha":863,"x_min":0,"x_max":0,"o":"m 310 243 l 310 972 l 67 972 l 67 0 l 796 0 l 796 243 z "},"m":{"ha":1226,"x_min":0,"x_max":0,"o":"m 867 972 l 583 689 l 347 972 l 68 972 l 68 0 l 311 0 l 311 636 l 650 232 l 836 388 l 740 500 l 918 678 l 918 -1 l 1161 -1 l 1161 971 z "},"n":{"ha":971,"x_min":0,"x_max":0,"o":"m 661 972 l 661 424 l 318 972 l 67 972 l 67 0 l 310 0 l 310 526 l 639 0 l 904 0 l 904 972 z "},"o":{"ha":1167,"x_min":0,"x_max":0,"o":"m 583 996 b 68 481 299 996 68 765 b 583 -35 68 196 299 -35 b 1099 481 868 -35 1099 196 b 583 996 1099 765 868 996 z m 583 206 b 310 479 432 206 310 328 b 583 753 310 631 432 753 b 857 479 735 753 857 631 b 583 206 857 328 735 206 z "},"p":{"ha":943,"x_min":0,"x_max":0,"o":"m 485 972 l 67 972 l 67 0 l 310 0 l 310 189 l 485 189 b 876 581 701 189 876 364 b 485 972 876 797 701 972 z m 485 432 l 310 432 l 310 729 l 485 729 b 633 581 567 729 633 663 b 485 432 633 499 567 432 z "},"q":{"ha":1176,"x_min":0,"x_max":0,"o":"m 792 -3 l 1110 -3 l 981 150 b 1099 479 1054 239 1099 354 b 583 994 1099 764 868 994 b 68 479 299 994 68 764 b 583 -36 68 194 299 -36 b 786 6 656 -36 724 -21 z m 617 210 b 583 207 606 208 594 207 b 310 481 432 207 310 329 b 583 754 310 632 432 754 b 857 481 735 754 857 632 b 819 343 857 431 843 383 l 767 406 l 581 250 z "},"r":{"ha":943,"x_min":0,"x_max":0,"o":"m 876 581 b 485 972 876 797 701 972 l 67 972 l 67 0 l 310 0 l 310 189 l 425 189 l 560 0 l 858 0 l 685 243 b 878 579 800 311 878 436 z m 486 431 l 311 431 l 311 728 l 486 728 b 635 579 568 728 635 661 b 486 431 635 497 568 431 z "},"s":{"ha":1044,"x_min":0,"x_max":0,"o":"m 674 607 l 369 607 b 308 668 336 607 308 635 b 369 729 308 701 336 729 l 633 729 b 694 668 667 729 694 701 l 938 668 b 633 972 938 836 801 972 l 369 972 b 65 668 201 972 65 836 b 369 364 65 500 201 364 l 674 364 b 735 303 707 364 735 336 b 674 242 735 269 707 242 l 369 242 b 308 303 336 242 308 269 l 65 303 b 369 -1 65 135 201 -1 l 674 -1 b 978 303 842 -1 978 135 b 674 607 978 471 842 607 z "},"t":{"ha":985,"x_min":0,"x_max":0,"o":"m 67 972 l 67 729 l 371 729 l 371 0 l 614 0 l 614 729 l 918 729 l 918 972 z "},"u":{"ha":985,"x_min":0,"x_max":0,"o":"m 674 972 l 674 425 b 492 243 674 325 592 243 b 310 425 392 243 310 325 l 310 972 l 67 972 l 67 425 b 492 0 67 190 257 0 b 917 425 726 0 917 190 l 917 972 z "},"v":{"ha":1215,"x_min":0,"x_max":0,"o":"m 885 972 l 607 313 l 329 972 l 65 972 l 475 0 l 739 0 l 1149 972 z "},"w":{"ha":1647,"x_min":0,"x_max":0,"o":"m 1318 972 l 1040 313 l 763 972 l 499 972 l 692 513 l 607 313 l 329 972 l 65 972 l 475 0 l 739 0 l 824 200 l 908 0 l 1172 0 l 1582 972 z "},"x":{"ha":1165,"x_min":0,"x_max":0,"o":"m 1099 972 l 763 972 l 582 721 l 401 972 l 65 972 l 414 486 l 65 0 l 401 0 l 582 251 l 763 0 l 1099 0 l 750 486 z "},"y":{"ha":1140,"x_min":0,"x_max":0,"o":"m 774 972 l 571 693 l 368 972 l 68 972 l 450 447 l 450 0 l 693 0 l 693 447 l 1075 972 z "},"z":{"ha":1044,"x_min":0,"x_max":0,"o":"m 978 972 l 67 972 l 67 729 l 632 729 l 67 278 l 67 0 l 978 0 l 978 243 l 413 243 l 978 694 z "},"{":{"ha":558,"x_min":0,"x_max":0,"o":"m 486 1240 l 438 1240 b 68 871 233 1240 68 1075 l 68 579 b 68 575 68 578 68 576 l 311 575 b 311 579 311 576 311 578 l 311 871 b 439 999 311 942 368 999 l 488 999 b 492 999 489 999 490 999 l 492 1242 b 488 1242 490 1242 489 1242 z m 439 -35 b 311 93 368 -35 311 22 l 311 385 b 311 389 311 386 311 388 l 68 389 b 68 385 68 388 68 386 l 68 93 b 438 -276 68 -111 233 -276 l 486 -276 b 490 -276 488 -276 489 -276 l 490 -33 b 486 -33 489 -33 488 -33 z "},"|":{"ha":376,"x_min":0,"x_max":0,"o":"m 310 -282 l 310 1297 l 67 1297 l 67 -283 z "},"}":{"ha":558,"x_min":0,"x_max":0,"o":"m 122 1240 l 74 1240 b 69 1240 72 1240 71 1240 l 69 997 b 74 997 71 997 72 997 l 122 997 b 250 869 193 997 250 940 l 250 578 b 250 574 250 576 250 575 l 493 574 b 493 578 493 575 493 576 l 493 869 b 124 1239 493 1074 328 1239 z m 250 388 b 250 383 250 386 250 385 l 250 92 b 122 -36 250 21 193 -36 l 74 -36 b 69 -36 72 -36 71 -36 l 69 -279 b 74 -279 71 -279 72 -279 l 122 -279 b 492 90 326 -279 492 -114 l 492 382 b 492 386 492 383 492 385 z "},"~":{"ha":985,"x_min":0,"x_max":0,"o":"m 614 411 l 614 654 l 67 654 l 67 411 z m 917 411 l 917 654 l 674 654 l 674 411 z "}," ":{"ha":517,"x_min":0,"x_max":0,"o":""},"­":{"ha":0,"x_min":0,"x_max":0,"o":""},"":{"ha":1113,"x_min":0,"x_max":0,"o":"m 1186 -185 l 592 1213 l 328 1213 l 431 969 l 428 969 l 18 -3 l 282 -3 l 307 58 l 410 301 l 560 657 l 917 -185 z "},"":{"ha":1833,"x_min":0,"x_max":0,"o":"m 1799 579 b 1407 971 1799 796 1624 971 l 989 971 l 989 561 l 1228 -1 l 1232 -1 l 1232 188 l 1347 188 l 1482 -1 l 1781 -1 l 1607 242 b 1799 578 1722 310 1799 435 z m 1407 429 l 1232 429 l 1232 726 l 1407 726 b 1556 578 1489 726 1556 660 b 1407 429 1556 496 1489 429 z m 328 1210 l 431 967 l 428 967 l 18 -6 l 282 -6 l 307 56 l 410 299 l 560 654 l 917 -186 l 1186 -186 l 592 1211 z "},"":{"ha":1667,"x_min":0,"x_max":0,"o":"m 917 972 l 67 972 l 67 729 l 371 729 l 371 0 l 614 0 l 614 729 l 918 729 z m 1297 243 l 1297 972 l 1054 972 l 1054 243 l 750 243 l 750 0 l 1600 0 l 1600 243 z "},"":{"ha":1113,"x_min":0,"x_max":0,"o":"m 328 1213 l 431 969 l 428 969 l 18 -3 l 282 -3 l 307 58 l 410 301 l 560 657 l 917 -183 l 1186 -183 l 592 1214 z "},"":{"ha":1825,"x_min":0,"x_max":0,"o":"m 1799 579 b 1407 971 1799 796 1624 971 l 989 971 l 989 561 l 1228 -1 l 1232 -1 l 1232 188 l 1347 188 l 1482 -1 l 1781 -1 l 1607 242 b 1799 578 1722 310 1799 435 z m 1407 429 l 1232 429 l 1232 726 l 1407 726 b 1556 578 1489 726 1556 660 b 1407 429 1556 496 1489 429 z m 328 1210 l 431 967 l 428 967 l 18 -6 l 282 -6 l 307 56 l 410 299 l 560 654 l 917 -186 l 1186 -186 l 592 1211 z "},"":{"ha":1667,"x_min":0,"x_max":0,"o":"m 917 972 l 67 972 l 67 729 l 371 729 l 371 0 l 614 0 l 614 729 l 918 729 z m 1297 243 l 1297 972 l 1054 972 l 1054 243 l 750 243 l 750 0 l 1600 0 l 1600 243 z "},"":{"ha":975,"x_min":0,"x_max":0,"o":"m 1039 -185 l 904 33 l 904 969 l 661 969 l 661 426 l 175 1213 l -115 1213 l 67 918 l 67 -3 l 310 -3 l 310 524 l 340 474 l 749 -186 z "},"":{"ha":975,"x_min":0,"x_max":0,"o":"m 1039 -185 l 904 33 l 904 969 l 661 969 l 661 426 l 175 1213 l -115 1213 l 67 918 l 67 -3 l 310 -3 l 310 524 l 340 474 l 749 -186 z "},"":{"ha":1154,"x_min":0,"x_max":0,"o":"m 964 -185 l 1282 -185 l 981 150 b 1099 479 1054 239 1099 354 b 583 994 1099 764 868 994 b 68 479 299 994 68 764 b 583 -37 68 194 299 -37 b 786 4 656 -37 724 -22 z m 617 208 b 583 206 606 207 594 206 b 310 479 432 206 310 328 b 583 753 310 631 432 753 b 857 479 735 753 857 631 b 819 342 857 429 843 382 l 767 404 l 581 249 z "},"":{"ha":1154,"x_min":0,"x_max":0,"o":"m 964 -185 l 1282 -185 l 981 150 b 1099 479 1054 239 1099 354 b 583 994 1099 764 868 994 b 68 479 299 994 68 764 b 583 -37 68 194 299 -37 b 786 4 656 -37 724 -22 z m 617 208 b 583 206 606 207 594 206 b 310 479 432 206 310 328 b 583 753 310 631 432 753 b 857 479 735 753 857 631 b 819 342 857 429 843 382 l 767 404 l 581 249 z "},"":{"ha":939,"x_min":0,"x_max":0,"o":"m 876 578 b 485 969 876 794 701 969 l 67 969 l 67 -3 l 310 -3 l 310 186 l 425 186 l 679 -185 l 978 -185 l 685 240 b 878 576 800 308 878 433 z m 311 725 l 486 725 b 635 576 568 725 635 658 b 486 428 635 494 568 428 l 311 428 z "},"":{"ha":939,"x_min":0,"x_max":0,"o":"m 876 578 b 485 969 876 794 701 969 l 67 969 l 67 -3 l 310 -3 l 310 186 l 425 186 l 679 -185 l 978 -185 l 685 240 b 878 576 800 308 878 433 z m 311 725 l 486 725 b 635 576 568 725 635 658 b 486 428 635 494 568 428 l 311 428 z "},"":{"ha":1100,"x_min":0,"x_max":0,"o":"m 1067 969 l 731 969 l 550 718 l 214 1213 l -122 1213 l 381 483 l 32 -3 l 368 -3 l 549 249 l 850 -186 l 1186 -186 l 717 482 z "},"":{"ha":1075,"x_min":0,"x_max":0,"o":"m 1067 969 l 731 969 l 550 718 l 214 1213 l -122 1213 l 381 483 l 32 -3 l 368 -3 l 549 249 l 850 -186 l 1186 -186 l 717 482 z "}}}
